<svg width="139" height="141" viewBox="0 0 139 141" fill="none" xmlns="http://www.w3.org/2000/svg">
<g filter="url(#filter0_d)">
<path d="M74.2631 19.25L69.5 11L64.7369 19.25L19.2705 98L14.5074 106.25H24.0337H114.966H124.493L119.729 98L74.2631 19.25Z" stroke="#FDFDFD" stroke-width="11"/>
</g>
<g filter="url(#filter1_d)">
<path d="M74.2631 19.25L69.5 11L64.7369 19.25L19.2705 98L14.5074 106.25H24.0337H114.966H124.493L119.729 98L74.2631 19.25Z" stroke="#FDFDFD" stroke-width="11"/>
</g>
<path d="M24.8997 100.25L69.5 23L114.1 100.25H24.8997Z" stroke="#CD8FFE"/>
<path d="M115 100.5L134 112L79.5 111.5V100.5H115Z" fill="#FFC85C"/>
<path d="M115 100.5L134 112L79.5 111.5V100.5H115Z" fill="#FFD88B"/>
<path d="M114.449 100.145L134.099 111.907L107 64.5L97 69.5L114.449 100.145Z" fill="#9DFFB3"/>
<path d="M29.5781 136.242H26.4961L25.9102 138H24.041L27.2168 129.469H28.8457L32.0391 138H30.1699L29.5781 136.242ZM26.9707 134.818H29.1035L28.0312 131.625L26.9707 134.818ZM34.5938 136.588H38.3262V138H32.8359V129.469H34.5938V136.588ZM41.209 138H39.4512V129.469H41.209V138ZM49.5938 136.922C49.2773 137.301 48.8301 137.596 48.252 137.807C47.6738 138.014 47.0332 138.117 46.3301 138.117C45.5918 138.117 44.9434 137.957 44.3848 137.637C43.8301 137.312 43.4004 136.844 43.0957 136.23C42.7949 135.617 42.6406 134.896 42.6328 134.068V133.488C42.6328 132.637 42.7754 131.9 43.0605 131.279C43.3496 130.654 43.7637 130.178 44.3027 129.85C44.8457 129.518 45.4805 129.352 46.207 129.352C47.2188 129.352 48.0098 129.594 48.5801 130.078C49.1504 130.559 49.4883 131.26 49.5938 132.182H47.8828C47.8047 131.693 47.6309 131.336 47.3613 131.109C47.0957 130.883 46.7285 130.77 46.2598 130.77C45.6621 130.77 45.207 130.994 44.8945 131.443C44.582 131.893 44.4238 132.561 44.4199 133.447V133.992C44.4199 134.887 44.5898 135.562 44.9297 136.02C45.2695 136.477 45.7676 136.705 46.4238 136.705C47.084 136.705 47.5547 136.564 47.8359 136.283V134.812H46.2363V133.518H49.5938V136.922ZM57.9609 138H56.2031L52.7812 132.387V138H51.0234V129.469H52.7812L56.209 135.094V129.469H57.9609V138ZM66.9082 135.762C66.9082 135.43 66.791 135.176 66.5566 135C66.3223 134.82 65.9004 134.633 65.291 134.438C64.6816 134.238 64.1992 134.043 63.8438 133.852C62.875 133.328 62.3906 132.623 62.3906 131.736C62.3906 131.275 62.5195 130.865 62.7773 130.506C63.0391 130.143 63.4121 129.859 63.8965 129.656C64.3848 129.453 64.9316 129.352 65.5371 129.352C66.1465 129.352 66.6895 129.463 67.166 129.686C67.6426 129.904 68.0117 130.215 68.2734 130.617C68.5391 131.02 68.6719 131.477 68.6719 131.988H66.9141C66.9141 131.598 66.791 131.295 66.5449 131.08C66.2988 130.861 65.9531 130.752 65.5078 130.752C65.0781 130.752 64.7441 130.844 64.5059 131.027C64.2676 131.207 64.1484 131.445 64.1484 131.742C64.1484 132.02 64.2871 132.252 64.5645 132.439C64.8457 132.627 65.2578 132.803 65.8008 132.967C66.8008 133.268 67.5293 133.641 67.9863 134.086C68.4434 134.531 68.6719 135.086 68.6719 135.75C68.6719 136.488 68.3926 137.068 67.834 137.49C67.2754 137.908 66.5234 138.117 65.5781 138.117C64.9219 138.117 64.3242 137.998 63.7852 137.76C63.2461 137.518 62.834 137.188 62.5488 136.77C62.2676 136.352 62.127 135.867 62.127 135.316H63.8906C63.8906 136.258 64.4531 136.729 65.5781 136.729C65.9961 136.729 66.3223 136.645 66.5566 136.477C66.791 136.305 66.9082 136.066 66.9082 135.762ZM72.8086 133.312L74.584 129.469H76.5059L73.7051 134.906V138H71.918V134.906L69.1172 129.469H71.0449L72.8086 133.312ZM81.6152 135.762C81.6152 135.43 81.498 135.176 81.2637 135C81.0293 134.82 80.6074 134.633 79.998 134.438C79.3887 134.238 78.9062 134.043 78.5508 133.852C77.582 133.328 77.0977 132.623 77.0977 131.736C77.0977 131.275 77.2266 130.865 77.4844 130.506C77.7461 130.143 78.1191 129.859 78.6035 129.656C79.0918 129.453 79.6387 129.352 80.2441 129.352C80.8535 129.352 81.3965 129.463 81.873 129.686C82.3496 129.904 82.7188 130.215 82.9805 130.617C83.2461 131.02 83.3789 131.477 83.3789 131.988H81.6211C81.6211 131.598 81.498 131.295 81.252 131.08C81.0059 130.861 80.6602 130.752 80.2148 130.752C79.7852 130.752 79.4512 130.844 79.2129 131.027C78.9746 131.207 78.8555 131.445 78.8555 131.742C78.8555 132.02 78.9941 132.252 79.2715 132.439C79.5527 132.627 79.9648 132.803 80.5078 132.967C81.5078 133.268 82.2363 133.641 82.6934 134.086C83.1504 134.531 83.3789 135.086 83.3789 135.75C83.3789 136.488 83.0996 137.068 82.541 137.49C81.9824 137.908 81.2305 138.117 80.2852 138.117C79.6289 138.117 79.0312 137.998 78.4922 137.76C77.9531 137.518 77.541 137.188 77.2559 136.77C76.9746 136.352 76.834 135.867 76.834 135.316H78.5977C78.5977 136.258 79.1602 136.729 80.2852 136.729C80.7031 136.729 81.0293 136.645 81.2637 136.477C81.498 136.305 81.6152 136.066 81.6152 135.762ZM90.9961 130.893H88.3828V138H86.625V130.893H84.0469V129.469H90.9961V130.893ZM97.1367 134.303H93.7617V136.588H97.7227V138H92.0039V129.469H97.7109V130.893H93.7617V132.926H97.1367V134.303ZM101.051 129.469L103.242 135.656L105.422 129.469H107.73V138H105.967V135.668L106.143 131.643L103.84 138H102.633L100.336 131.648L100.512 135.668V138H98.7539V129.469H101.051ZM113.689 135.762C113.689 135.43 113.572 135.176 113.338 135C113.104 134.82 112.682 134.633 112.072 134.438C111.463 134.238 110.98 134.043 110.625 133.852C109.656 133.328 109.172 132.623 109.172 131.736C109.172 131.275 109.301 130.865 109.559 130.506C109.82 130.143 110.193 129.859 110.678 129.656C111.166 129.453 111.713 129.352 112.318 129.352C112.928 129.352 113.471 129.463 113.947 129.686C114.424 129.904 114.793 130.215 115.055 130.617C115.32 131.02 115.453 131.477 115.453 131.988H113.695C113.695 131.598 113.572 131.295 113.326 131.08C113.08 130.861 112.734 130.752 112.289 130.752C111.859 130.752 111.525 130.844 111.287 131.027C111.049 131.207 110.93 131.445 110.93 131.742C110.93 132.02 111.068 132.252 111.346 132.439C111.627 132.627 112.039 132.803 112.582 132.967C113.582 133.268 114.311 133.641 114.768 134.086C115.225 134.531 115.453 135.086 115.453 135.75C115.453 136.488 115.174 137.068 114.615 137.49C114.057 137.908 113.305 138.117 112.359 138.117C111.703 138.117 111.105 137.998 110.566 137.76C110.027 137.518 109.615 137.188 109.33 136.77C109.049 136.352 108.908 135.867 108.908 135.316H110.672C110.672 136.258 111.234 136.729 112.359 136.729C112.777 136.729 113.104 136.645 113.338 136.477C113.572 136.305 113.689 136.066 113.689 135.762Z" fill="#747474"/>
<defs>
<filter id="filter0_d" x="0.981079" y="0" width="137.038" height="119.75" filterUnits="userSpaceOnUse" color-interpolation-filters="sRGB">
<feFlood flood-opacity="0" result="BackgroundImageFix"/>
<feColorMatrix in="SourceAlpha" type="matrix" values="0 0 0 0 0 0 0 0 0 0 0 0 0 0 0 0 0 0 127 0"/>
<feOffset dy="4"/>
<feGaussianBlur stdDeviation="2"/>
<feColorMatrix type="matrix" values="0 0 0 0 0 0 0 0 0 0 0 0 0 0 0 0 0 0 0.25 0"/>
<feBlend mode="normal" in2="BackgroundImageFix" result="effect1_dropShadow"/>
<feBlend mode="normal" in="SourceGraphic" in2="effect1_dropShadow" result="shape"/>
</filter>
<filter id="filter1_d" x="0.981079" y="0" width="137.038" height="119.75" filterUnits="userSpaceOnUse" color-interpolation-filters="sRGB">
<feFlood flood-opacity="0" result="BackgroundImageFix"/>
<feColorMatrix in="SourceAlpha" type="matrix" values="0 0 0 0 0 0 0 0 0 0 0 0 0 0 0 0 0 0 127 0"/>
<feOffset dy="4"/>
<feGaussianBlur stdDeviation="2"/>
<feColorMatrix type="matrix" values="0 0 0 0 0 0 0 0 0 0 0 0 0 0 0 0 0 0 0.25 0"/>
<feBlend mode="normal" in2="BackgroundImageFix" result="effect1_dropShadow"/>
<feBlend mode="normal" in="SourceGraphic" in2="effect1_dropShadow" result="shape"/>
</filter>
</defs>
</svg>
