<svg width="422" height="127" viewBox="0 0 422 127" fill="none" xmlns="http://www.w3.org/2000/svg">
<g filter="url(#filter0_d)">
<path d="M74.2631 19.25L69.5 11L64.7369 19.25L19.2705 98L14.5074 106.25H24.0337H114.966H124.493L119.729 98L74.2631 19.25Z" stroke="#FDFDFD" stroke-width="11"/>
</g>
<path d="M24.8997 100.25L69.5 23L114.1 100.25H24.8997Z" stroke="#CD8FFE"/>
<path d="M115 100.5L134 112L79.5 111.5V100.5H115Z" fill="#FFC85C"/>
<path d="M115 100.5L134 112L79.5 111.5V100.5H115Z" fill="#FFD88B"/>
<path d="M114.449 100.145L134.099 111.907L107 64.5L97 69.5L114.449 100.145Z" fill="#9DFFB3"/>
<path d="M162.734 70.7266H153.488L151.73 76H146.123L155.65 50.4062H160.537L170.117 76H164.51L162.734 70.7266ZM154.912 66.4551H161.311L158.094 56.875L154.912 66.4551ZM177.781 71.7637H188.979V76H172.508V50.4062H177.781V71.7637ZM197.627 76H192.354V50.4062H197.627V76ZM222.781 72.7656C221.832 73.9023 220.49 74.7871 218.756 75.4199C217.021 76.041 215.1 76.3516 212.99 76.3516C210.775 76.3516 208.83 75.8711 207.154 74.9102C205.49 73.9375 204.201 72.5312 203.287 70.6914C202.385 68.8516 201.922 66.6895 201.898 64.2051V62.4648C201.898 59.9102 202.326 57.7012 203.182 55.8379C204.049 53.9629 205.291 52.5332 206.908 51.5488C208.537 50.5527 210.441 50.0547 212.621 50.0547C215.656 50.0547 218.029 50.7812 219.74 52.2344C221.451 53.6758 222.465 55.7793 222.781 58.5449H217.648C217.414 57.0801 216.893 56.0078 216.084 55.3281C215.287 54.6484 214.186 54.3086 212.779 54.3086C210.986 54.3086 209.621 54.9824 208.684 56.3301C207.746 57.6777 207.271 59.6816 207.26 62.3418V63.9766C207.26 66.6602 207.77 68.6875 208.789 70.0586C209.809 71.4297 211.303 72.1152 213.271 72.1152C215.252 72.1152 216.664 71.6934 217.508 70.8496V66.4375H212.709V62.5527H222.781V72.7656ZM247.883 76H242.609L232.344 59.1602V76H227.07V50.4062H232.344L242.627 67.2812V50.4062H247.883V76ZM274.725 69.2852C274.725 68.2891 274.373 67.5273 273.67 67C272.967 66.4609 271.701 65.8984 269.873 65.3125C268.045 64.7148 266.598 64.1289 265.531 63.5547C262.625 61.9844 261.172 59.8691 261.172 57.209C261.172 55.8262 261.559 54.5957 262.332 53.5176C263.117 52.4277 264.236 51.5781 265.689 50.9688C267.154 50.3594 268.795 50.0547 270.611 50.0547C272.439 50.0547 274.068 50.3887 275.498 51.0566C276.928 51.7129 278.035 52.6445 278.82 53.8516C279.617 55.0586 280.016 56.4297 280.016 57.9648H274.742C274.742 56.793 274.373 55.8848 273.635 55.2402C272.896 54.584 271.859 54.2559 270.523 54.2559C269.234 54.2559 268.232 54.5312 267.518 55.082C266.803 55.6211 266.445 56.3359 266.445 57.2266C266.445 58.0586 266.861 58.7559 267.693 59.3184C268.537 59.8809 269.773 60.4082 271.402 60.9004C274.402 61.8027 276.588 62.9219 277.959 64.2578C279.33 65.5938 280.016 67.2578 280.016 69.25C280.016 71.4648 279.178 73.2051 277.502 74.4707C275.826 75.7246 273.57 76.3516 270.734 76.3516C268.766 76.3516 266.973 75.9941 265.355 75.2793C263.738 74.5527 262.502 73.5625 261.646 72.3086C260.803 71.0547 260.381 69.6016 260.381 67.9492H265.672C265.672 70.7734 267.359 72.1855 270.734 72.1855C271.988 72.1855 272.967 71.9336 273.67 71.4297C274.373 70.9141 274.725 70.1992 274.725 69.2852ZM292.426 61.9375L297.752 50.4062H303.518L295.115 66.7188V76H289.754V66.7188L281.352 50.4062H287.135L292.426 61.9375ZM318.846 69.2852C318.846 68.2891 318.494 67.5273 317.791 67C317.088 66.4609 315.822 65.8984 313.994 65.3125C312.166 64.7148 310.719 64.1289 309.652 63.5547C306.746 61.9844 305.293 59.8691 305.293 57.209C305.293 55.8262 305.68 54.5957 306.453 53.5176C307.238 52.4277 308.357 51.5781 309.811 50.9688C311.275 50.3594 312.916 50.0547 314.732 50.0547C316.561 50.0547 318.189 50.3887 319.619 51.0566C321.049 51.7129 322.156 52.6445 322.941 53.8516C323.738 55.0586 324.137 56.4297 324.137 57.9648H318.863C318.863 56.793 318.494 55.8848 317.756 55.2402C317.018 54.584 315.98 54.2559 314.645 54.2559C313.355 54.2559 312.354 54.5312 311.639 55.082C310.924 55.6211 310.566 56.3359 310.566 57.2266C310.566 58.0586 310.982 58.7559 311.814 59.3184C312.658 59.8809 313.895 60.4082 315.523 60.9004C318.523 61.8027 320.709 62.9219 322.08 64.2578C323.451 65.5938 324.137 67.2578 324.137 69.25C324.137 71.4648 323.299 73.2051 321.623 74.4707C319.947 75.7246 317.691 76.3516 314.855 76.3516C312.887 76.3516 311.094 75.9941 309.477 75.2793C307.859 74.5527 306.623 73.5625 305.768 72.3086C304.924 71.0547 304.502 69.6016 304.502 67.9492H309.793C309.793 70.7734 311.48 72.1855 314.855 72.1855C316.109 72.1855 317.088 71.9336 317.791 71.4297C318.494 70.9141 318.846 70.1992 318.846 69.2852ZM346.988 54.6777H339.148V76H333.875V54.6777H326.141V50.4062H346.988V54.6777ZM365.41 64.9082H355.285V71.7637H367.168V76H350.012V50.4062H367.133V54.6777H355.285V60.7773H365.41V64.9082ZM377.152 50.4062L383.727 68.9688L390.266 50.4062H397.191V76H391.9V69.0039L392.428 56.9277L385.52 76H381.898L375.008 56.9453L375.535 69.0039V76H370.262V50.4062H377.152ZM415.068 69.2852C415.068 68.2891 414.717 67.5273 414.014 67C413.311 66.4609 412.045 65.8984 410.217 65.3125C408.389 64.7148 406.941 64.1289 405.875 63.5547C402.969 61.9844 401.516 59.8691 401.516 57.209C401.516 55.8262 401.902 54.5957 402.676 53.5176C403.461 52.4277 404.58 51.5781 406.033 50.9688C407.498 50.3594 409.139 50.0547 410.955 50.0547C412.783 50.0547 414.412 50.3887 415.842 51.0566C417.271 51.7129 418.379 52.6445 419.164 53.8516C419.961 55.0586 420.359 56.4297 420.359 57.9648H415.086C415.086 56.793 414.717 55.8848 413.979 55.2402C413.24 54.584 412.203 54.2559 410.867 54.2559C409.578 54.2559 408.576 54.5312 407.861 55.082C407.146 55.6211 406.789 56.3359 406.789 57.2266C406.789 58.0586 407.205 58.7559 408.037 59.3184C408.881 59.8809 410.117 60.4082 411.746 60.9004C414.746 61.8027 416.932 62.9219 418.303 64.2578C419.674 65.5938 420.359 67.2578 420.359 69.25C420.359 71.4648 419.521 73.2051 417.846 74.4707C416.17 75.7246 413.914 76.3516 411.078 76.3516C409.109 76.3516 407.316 75.9941 405.699 75.2793C404.082 74.5527 402.846 73.5625 401.99 72.3086C401.146 71.0547 400.725 69.6016 400.725 67.9492H406.016C406.016 70.7734 407.703 72.1855 411.078 72.1855C412.332 72.1855 413.311 71.9336 414.014 71.4297C414.717 70.9141 415.068 70.1992 415.068 69.2852Z" fill="#747474"/>
<defs>
<filter id="filter0_d" x="0.981079" y="0" width="137.038" height="119.75" filterUnits="userSpaceOnUse" color-interpolation-filters="sRGB">
<feFlood flood-opacity="0" result="BackgroundImageFix"/>
<feColorMatrix in="SourceAlpha" type="matrix" values="0 0 0 0 0 0 0 0 0 0 0 0 0 0 0 0 0 0 127 0"/>
<feOffset dy="4"/>
<feGaussianBlur stdDeviation="2"/>
<feColorMatrix type="matrix" values="0 0 0 0 0 0 0 0 0 0 0 0 0 0 0 0 0 0 0.25 0"/>
<feBlend mode="normal" in2="BackgroundImageFix" result="effect1_dropShadow"/>
<feBlend mode="normal" in="SourceGraphic" in2="effect1_dropShadow" result="shape"/>
</filter>
</defs>
</svg>
